HIERARCHY
ROOT Hips
{
OFFSET 0.0000 111.0000 0.0000
CHANNELS 6 Xposition Yposition Zposition Yrotation Xrotation Zrotation
	JOINT RightUpperLeg
	{
		OFFSET -10.5000 -8.8000 0.0000
		CHANNELS 3 Yrotation Xrotation Zrotation
		JOINT RightLowerLeg
		{
			OFFSET 0.0000 -45.6000 0.0000
			CHANNELS 3 Yrotation Xrotation Zrotation
			JOINT RightFoot
			{
				OFFSET 0.0000 -46.7000 0.0000
				CHANNELS 3 Yrotation Xrotation Zrotation
				JOINT RightToe
				{
					OFFSET 0.0000 -8.0000 12.1000
					CHANNELS 3 Yrotation Xrotation Zrotation
					End Site
					{
						OFFSET 0.0000 0.0000 2.4200
					}
				}
			}
		}
	}
	JOINT LeftUpperLeg
	{
		OFFSET 10.5000 -8.8000 0.0000
		CHANNELS 3 Yrotation Xrotation Zrotation
		JOINT LeftLowerLeg
		{
			OFFSET 0.0000 -45.6000 0.0000
			CHANNELS 3 Yrotation Xrotation Zrotation
			JOINT LeftFoot
			{
				OFFSET 0.0000 -46.7000 0.0000
				CHANNELS 3 Yrotation Xrotation Zrotation
				JOINT LeftToe
				{
					OFFSET 0.0000 -8.0000 12.1000
					CHANNELS 3 Yrotation Xrotation Zrotation
					End Site
					{
						OFFSET 0.0000 0.0000 2.4200
					}
				}
			}
		}
	}
	JOINT Spine
	{
		OFFSET 0.0000 9.7000 0.0000
		CHANNELS 3 Yrotation Xrotation Zrotation
		JOINT Spine1
		{
			OFFSET 0.0000 11.2000 0.0000
			CHANNELS 3 Yrotation Xrotation Zrotation
			JOINT Spine2
			{
				OFFSET 0.0000 12.1000 0.0000
				CHANNELS 3 Yrotation Xrotation Zrotation
				JOINT Spine3
				{
					OFFSET 0.0000 11.7000 1.2000
					CHANNELS 3 Yrotation Xrotation Zrotation
					JOINT Neck
					{
						OFFSET 0.0000 12.0000 -1.2000
						CHANNELS 3 Yrotation Xrotation Zrotation
						JOINT Head
						{
							OFFSET 0.0000 10.0000 0.0000
							CHANNELS 3 Yrotation Xrotation Zrotation
							End Site
							{
								OFFSET 0.0000 20.0000 0.0000
							}
						}
					}
					JOINT RightShoulder
					{
						OFFSET -4.9000 4.0000 -1.2000
						CHANNELS 3 Yrotation Xrotation Zrotation
						JOINT RightUpperArm
						{
							OFFSET -15.6000 0.0000 0.0000
							CHANNELS 3 Yrotation Xrotation Zrotation
							JOINT RightLowerArm
							{
								OFFSET -25.9000 0.0000 0.0000
								CHANNELS 3 Yrotation Xrotation Zrotation
								JOINT RightHand
								{
									OFFSET -28.4000 0.0000 0.0000
									CHANNELS 3 Yrotation Xrotation Zrotation
									JOINT RightThumbFinger
									{
										OFFSET -3.4000 0.3000 4.2000
										CHANNELS 3 Yrotation Xrotation Zrotation
										JOINT RightThumbFinger1
										{
											OFFSET -3.5000 0.0000 3.5000
											CHANNELS 3 Yrotation Xrotation Zrotation
											JOINT RightThumbFinger2
											{
												OFFSET -2.5000 0.0000 2.4000
												CHANNELS 3 Yrotation Xrotation Zrotation
												End Site
												{
													OFFSET -2.1450 0.0000 2.0592
												}
											}
										}
									}
									JOINT RightIndexFinger
									{
										OFFSET -4.4000 0.7000 2.6000
										CHANNELS 3 Yrotation Xrotation Zrotation
										JOINT RightIndexFinger1
										{
											OFFSET -7.0000 -0.1000 1.4000
											CHANNELS 3 Yrotation Xrotation Zrotation
											JOINT RightIndexFinger2
											{
												OFFSET -5.0000 -0.2000 0.0000
												CHANNELS 3 Yrotation Xrotation Zrotation
												JOINT RightIndexFinger3
												{
													OFFSET -2.7000 -0.2000 0.0000
													CHANNELS 3 Yrotation Xrotation Zrotation
													End Site
													{
														OFFSET -2.3814 -0.1764 0.0000
													}
												}
											}
										}
									}
									JOINT RightMiddleFinger
									{
										OFFSET -4.6000 0.7000 1.0000
										CHANNELS 3 Yrotation Xrotation Zrotation
										JOINT RightMiddleFinger1
										{
											OFFSET -7.0000 -0.1000 0.4000
											CHANNELS 3 Yrotation Xrotation Zrotation
											JOINT RightMiddleFinger2
											{
												OFFSET -5.3000 -0.3000 0.0000
												CHANNELS 3 Yrotation Xrotation Zrotation
												JOINT RightMiddleFinger3
												{
													OFFSET -3.4000 -0.3000 0.0000
													CHANNELS 3 Yrotation Xrotation Zrotation
													End Site
													{
														OFFSET -2.9988 -0.2646 0.0000
													}
												}
											}
										}
									}
									JOINT RightRingFinger
									{
										OFFSET -4.5000 0.8000 -0.1000
										CHANNELS 3 Yrotation Xrotation Zrotation
										JOINT RightRingFinger1
										{
											OFFSET -6.3000 -0.1000 -0.7000
											CHANNELS 3 Yrotation Xrotation Zrotation
											JOINT RightRingFinger2
											{
												OFFSET -4.7000 -0.4000 0.0000
												CHANNELS 3 Yrotation Xrotation Zrotation
												JOINT RightRingFinger3
												{
													OFFSET -3.2000 -0.3000 0.0000
													CHANNELS 3 Yrotation Xrotation Zrotation
													End Site
													{
														OFFSET -2.8224 -0.2646 0.0000
													}
												}
											}
										}
									}
									JOINT RightPinkyFinger
									{
										OFFSET -4.3000 0.7000 -1.6000
										CHANNELS 3 Yrotation Xrotation Zrotation
										JOINT RightPinkyFinger1
										{
											OFFSET -5.6000 -0.1000 -1.5000
											CHANNELS 3 Yrotation Xrotation Zrotation
											JOINT RightPinkyFinger2
											{
												OFFSET -3.7000 -0.2000 0.0000
												CHANNELS 3 Yrotation Xrotation Zrotation
												JOINT RightPinkyFinger3
												{
													OFFSET -2.4000 -0.1000 0.0000
													CHANNELS 3 Yrotation Xrotation Zrotation
													End Site
													{
														OFFSET -2.1168 -0.0882 0.0000
													}
												}
											}
										}
									}
								}
							}
						}
					}
					JOINT LeftShoulder
					{
						OFFSET 4.9000 4.0000 -1.2000
						CHANNELS 3 Yrotation Xrotation Zrotation
						JOINT LeftUpperArm
						{
							OFFSET 15.6000 0.0000 0.0000
							CHANNELS 3 Yrotation Xrotation Zrotation
							JOINT LeftLowerArm
							{
								OFFSET 25.9000 0.0000 0.0000
								CHANNELS 3 Yrotation Xrotation Zrotation
								JOINT LeftHand
								{
									OFFSET 28.4000 0.0000 0.0000
									CHANNELS 3 Yrotation Xrotation Zrotation
									JOINT LeftThumbFinger
									{
										OFFSET 3.4000 0.3000 4.2000
										CHANNELS 3 Yrotation Xrotation Zrotation
										JOINT LeftThumbFinger1
										{
											OFFSET 3.5000 0.0000 3.5000
											CHANNELS 3 Yrotation Xrotation Zrotation
											JOINT LeftThumbFinger2
											{
												OFFSET 2.5000 0.0000 2.5000
												CHANNELS 3 Yrotation Xrotation Zrotation
												End Site
												{
													OFFSET 2.1450 0.0000 2.1450
												}
											}
										}
									}
									JOINT LeftIndexFinger
									{
										OFFSET 4.4000 0.7000 2.6000
										CHANNELS 3 Yrotation Xrotation Zrotation
										JOINT LeftIndexFinger1
										{
											OFFSET 7.0000 -0.1000 1.4000
											CHANNELS 3 Yrotation Xrotation Zrotation
											JOINT LeftIndexFinger2
											{
												OFFSET 5.0000 -0.2000 0.0000
												CHANNELS 3 Yrotation Xrotation Zrotation
												JOINT LeftIndexFinger3
												{
													OFFSET 2.7000 -0.2000 0.0000
													CHANNELS 3 Yrotation Xrotation Zrotation
													End Site
													{
														OFFSET 2.3814 -0.1764 0.0000
													}
												}
											}
										}
									}
									JOINT LeftMiddleFinger
									{
										OFFSET 4.6000 0.7000 1.0000
										CHANNELS 3 Yrotation Xrotation Zrotation
										JOINT LeftMiddleFinger1
										{
											OFFSET 7.0000 -0.1000 0.4000
											CHANNELS 3 Yrotation Xrotation Zrotation
											JOINT LeftMiddleFinger2
											{
												OFFSET 5.3000 -0.3000 0.0000
												CHANNELS 3 Yrotation Xrotation Zrotation
												JOINT LeftMiddleFinger3
												{
													OFFSET 3.4000 -0.3000 0.0000
													CHANNELS 3 Yrotation Xrotation Zrotation
													End Site
													{
														OFFSET 2.9988 -0.2646 0.0000
													}
												}
											}
										}
									}
									JOINT LeftRingFinger
									{
										OFFSET 4.5000 0.8000 -0.1000
										CHANNELS 3 Yrotation Xrotation Zrotation
										JOINT LeftRingFinger1
										{
											OFFSET 6.3000 -0.1000 -0.7000
											CHANNELS 3 Yrotation Xrotation Zrotation
											JOINT LeftRingFinger2
											{
												OFFSET 4.7000 -0.3000 0.0000
												CHANNELS 3 Yrotation Xrotation Zrotation
												JOINT LeftRingFinger3
												{
													OFFSET 3.2000 -0.2000 0.0000
													CHANNELS 3 Yrotation Xrotation Zrotation
													End Site
													{
														OFFSET 2.8224 -0.1764 0.0000
													}
												}
											}
										}
									}
									JOINT LeftPinkyFinger
									{
										OFFSET 4.3000 0.7000 -1.6000
										CHANNELS 3 Yrotation Xrotation Zrotation
										JOINT LeftPinkyFinger1
										{
											OFFSET 5.6000 -0.1000 -1.5000
											CHANNELS 3 Yrotation Xrotation Zrotation
											JOINT LeftPinkyFinger2
											{
												OFFSET 3.7000 -0.2000 0.1000
												CHANNELS 3 Yrotation Xrotation Zrotation
												JOINT LeftPinkyFinger3
												{
													OFFSET 2.4000 -0.1000 -0.1000
													CHANNELS 3 Yrotation Xrotation Zrotation
													End Site
													{
														OFFSET 2.1168 -0.0882 -0.0882
													}
												}
											}
										}
									}
								}
							}
						}
					}
				}
			}
		}
	}
}
MOTION
Frames: 4
Frame Time: 0.0166667
1.0225 0.0489 9.1657 107.79 -3.27 2.59 -8.76 10.48 -2.92 0.92 -5.22 -0.06 1.43 -3.66 -0.28 0.00 -0.00 0.00 -13.22 6.25 0.51 -5.03 -0.97 0.04 -12.88 -4.14 -2.73 -0.00 0.00 0.00 -0.71 0.61 0.69 -0.59 0.72 -0.86 -0.64 0.78 -0.93 -0.64 0.78 -0.93 0.48 -2.70 -0.62 0.41 -2.30 -0.52 0.26 -6.91 7.97 9.84 -0.93 78.02 -0.71 10.11 -4.15 -1.27 22.49 0.08 3.75 2.74 3.57 8.18 0.66 4.34 12.38 0.14 6.15 -0.00 0.00 -0.00 1.94 0.34 -9.99 0.00 -0.00 -0.00 0.00 -0.00 -0.00 -0.00 0.00 -0.00 -0.00 0.00 0.38 -0.00 0.00 6.08 -0.00 0.00 3.04 -0.00 0.00 -0.00 -2.00 0.02 0.63 0.05 0.30 8.83 0.04 0.15 4.46 -0.00 0.00 -0.00 -4.00 0.01 0.20 0.01 0.26 3.72 0.01 0.13 1.84 3.49 -6.24 -1.04 -6.52 -11.62 -78.63 0.57 15.89 2.29 1.17 -0.02 2.12 -2.22 -0.49 -2.24 -2.86 -0.24 -4.30 -4.27 -0.28 -6.47 0.00 -0.00 -0.00 -2.00 -0.00 -0.02 0.00 -0.02 -0.52 0.00 -0.01 -0.25 0.00 -0.00 -0.00 0.00 0.00 -0.03 0.00 0.00 -0.63 0.00 0.00 -0.31 0.00 -0.00 -0.00 2.00 0.01 -0.24 -0.01 0.15 -4.32 -0.01 0.07 -2.15 0.00 -0.00 -0.00 4.00 0.04 -0.56 -0.08 0.56 -8.09 -0.06 0.28 -4.07
1.1465 0.0335 9.1283 109.64 -3.25 2.72 -9.24 10.62 -2.99 0.31 -5.09 -0.04 0.63 -3.91 -0.27 -0.00 -0.00 -0.00 -13.97 5.94 0.44 -5.55 -0.98 0.05 -13.47 -4.06 -2.81 -0.00 -0.00 0.00 -0.66 0.60 0.62 -0.55 0.72 -0.86 -0.59 0.77 -0.93 -0.59 0.77 -0.93 0.43 -2.69 -0.64 0.37 -2.29 -0.55 0.17 -6.96 7.97 9.81 -0.69 78.32 -0.74 10.33 -4.22 -1.21 22.62 0.11 3.74 2.70 3.57 8.22 0.64 4.22 12.43 0.08 5.97 -0.00 -0.00 0.00 1.94 0.34 -9.99 0.00 0.00 -0.00 0.00 0.00 -0.00 -0.00 -0.00 0.00 0.00 -0.00 0.38 0.00 -0.00 6.07 0.00 -0.00 3.04 -0.00 -0.00 0.00 -2.00 0.02 0.63 0.05 0.30 8.83 0.04 0.15 4.46 -0.00 -0.00 0.00 -4.00 0.02 0.22 0.01 0.28 3.93 0.01 0.14 1.95 3.49 -6.41 -0.99 -6.51 -11.51 -79.09 0.42 16.23 2.09 1.16 0.04 2.12 -2.22 -0.49 -2.24 -2.84 -0.24 -4.31 -4.23 -0.27 -6.48 0.00 -0.00 0.00 -2.00 -0.00 -0.02 0.00 -0.02 -0.47 0.00 -0.01 -0.23 0.00 -0.00 0.00 0.00 0.00 -0.03 0.00 0.00 -0.59 0.00 0.00 -0.29 0.00 -0.00 0.00 2.00 0.01 -0.24 -0.01 0.15 -4.27 -0.01 0.07 -2.12 0.00 -0.00 0.00 4.00 0.04 -0.56 -0.08 0.55 -8.04 -0.06 0.28 -4.05
1.2674 0.0150 9.0905 111.51 -3.22 2.84 -9.65 10.74 -3.03 -0.30 -4.96 -0.01 -0.24 -4.13 -0.26 -0.00 0.00 0.00 -14.65 5.61 0.38 -6.10 -0.96 0.06 -14.12 -3.99 -2.88 -0.00 0.00 0.00 -0.59 0.60 0.55 -0.49 0.71 -0.86 -0.53 0.77 -0.93 -0.53 0.77 -0.93 0.39 -2.68 -0.67 0.33 -2.29 -0.57 0.03 -7.01 7.96 9.86 -0.43 78.67 -0.76 10.54 -4.29 -1.14 22.75 0.16 3.71 2.79 3.54 8.26 0.67 4.15 12.49 0.12 5.86 -0.00 -0.00 0.00 1.94 0.34 -9.99 -0.00 0.00 0.00 -0.00 0.00 0.00 -0.00 -0.00 0.00 -0.00 0.00 0.38 -0.00 0.00 6.09 -0.00 0.00 3.04 -0.00 -0.00 0.00 -2.00 0.02 0.64 0.05 0.30 8.87 0.04 0.15 4.48 -0.00 -0.00 0.00 -4.00 0.02 0.23 0.02 0.29 4.13 0.01 0.14 2.05 3.47 -6.59 -0.93 -6.41 -11.39 -79.54 0.21 16.52 1.88 1.14 0.08 2.12 -2.22 -0.48 -2.23 -2.82 -0.24 -4.32 -4.21 -0.27 -6.49 0.00 0.00 -0.00 -2.00 -0.00 -0.02 0.00 -0.01 -0.43 0.00 -0.01 -0.21 0.00 0.00 -0.00 0.00 0.00 -0.03 0.00 0.00 -0.57 0.00 0.00 -0.28 0.00 0.00 -0.00 2.00 0.01 -0.24 -0.01 0.15 -4.23 -0.01 0.07 -2.10 0.00 0.00 -0.00 4.00 0.04 -0.55 -0.08 0.55 -8.00 -0.06 0.27 -4.02
1.3872 -0.0064 9.0514 113.48 -3.17 2.96 -10.08 10.84 -3.06 -0.96 -4.79 0.01 -1.14 -4.38 -0.24 0.00 -0.00 0.00 -15.41 5.23 0.33 -6.67 -0.95 0.06 -14.78 -3.93 -2.97 0.00 0.00 -0.00 -0.50 0.59 0.49 -0.39 0.70 -0.85 -0.43 0.76 -0.92 -0.43 0.76 -0.92 0.23 -2.67 -0.70 0.19 -2.27 -0.60 -0.13 -7.05 7.93 9.77 -0.18 79.02 -0.79 10.74 -4.37 -1.05 22.87 0.23 3.69 2.87 3.51 8.30 0.71 4.08 12.55 0.16 5.73 -0.00 -0.00 -0.00 1.94 0.34 -9.99 0.00 0.00 -0.00 0.00 0.00 -0.00 -0.00 -0.00 -0.00 0.00 -0.00 0.38 0.00 -0.00 6.06 0.00 -0.00 3.03 -0.00 -0.00 -0.00 -2.00 0.02 0.64 0.05 0.30 8.84 0.04 0.15 4.46 -0.00 -0.00 -0.00 -4.00 0.02 0.25 0.02 0.30 4.34 0.02 0.15 2.16 3.44 -6.76 -0.86 -6.42 -11.24 -80.02 -0.05 16.76 1.66 1.13 0.11 2.13 -2.21 -0.48 -2.23 -2.80 -0.24 -4.32 -4.17 -0.26 -6.49 0.00 0.00 0.00 -2.00 -0.00 -0.02 0.00 -0.01 -0.39 0.00 -0.01 -0.19 0.00 0.00 0.00 0.00 0.00 -0.02 0.00 0.00 -0.53 0.00 0.00 -0.26 0.00 0.00 0.00 2.00 0.01 -0.24 -0.01 0.15 -4.20 -0.01 0.07 -2.09 0.00 0.00 0.00 4.00 0.04 -0.55 -0.08 0.55 -7.95 -0.06 0.27 -4.00
